<?xml version="1.0" encoding="utf-8"?>
<!-- Generator: Adobe Illustrator 24.0.0, SVG Export Plug-In . SVG Version: 6.00 Build 0)  -->
<svg version="1.1" id="Capa_1" xmlns="http://www.w3.org/2000/svg" xmlns:xlink="http://www.w3.org/1999/xlink" x="0px" y="0px"
	 viewBox="0 0 1000 197.1" style="enable-background:new 0 0 1000 197.1;" xml:space="preserve">
<style type="text/css">
	.st0{fill:#F0F46A;}
	.st1{fill:#543B36;}
</style>
<path class="st0" d="M605.6,28.1c-12.9,43-26.4,85.8-38.4,129c-3.2,11.4-8.1,14.1-19,14.2c-11.3,0.2-15.9-3.5-18.7-14.6
	c-8.2-32.7-17.9-65-28.2-101.8c-10.3,35-19.7,66-28.5,97.2c-3.1,10.8-4.6,19.6-20.3,19.4c-15-0.2-16.2-8.6-19.1-18.6
	c-10.9-38.1-22.2-76.1-33.3-114.2c-5-25.2-3.1-26.9,23.3-20.3c7.4,39.5,18.8,77.9,32.4,116.7c10.3-38.9,20.7-77.7,31-116.6
	c11.2-1.7,22.7-7,32.5,3.7c9.3,37.4,18.6,74.8,27.9,112.2c1.1-0.2,2.2-0.4,3.3-0.7c9.1-35.7,18.1-71.5,27.2-107.2
	c0,0,0.8-2.4,0.8-2.4c0.4-1.5,0.5-1.1,0.9-2.6c6.5-9.8,16.3-5.3,24.4-4.5C610.4,17.7,605.2,24.2,605.6,28.1z"/>
<path class="st0" d="M242.9,128.2c56.9-12.1,80.8-42.2,92.2-117c10,2.3,6.5,12.2,10.2,17.5c6.6,60.7-29.1,113-89.8,132.2
	c-6.4,2-13.9,1.4-19.3,6.4c-50.8,4.4-96.8-7-135.6-41.6c-12.4-18.4-25.1-36.4-29.1-59.2c-1.6-9-0.5-12.3,9.4-12.4
	c15.7-0.1,31.3-2,35.6,19.1c0.8,4,5.2,7.2,7.9,10.8c23.3,32.1,55.4,46.3,94.5,46.2C226.9,129.6,234.9,128.9,242.9,128.2z"/>
<path class="st0" d="M767,87.3c16.7-34.9,43.6-48,78.5-38c25.3,7.2,43.4,36.1,39.9,61.7c-1.2,9.1-6.8,7.7-12.3,7.7
	c-23.7,0-47.3,0.4-71-0.3c-11.9-0.3-12.4,4.3-8.2,13.3c9,19.1,36.8,25.6,53.2,12.2c13.1-10.7,13.1-10.7,33.3-8.8
	c-5.2,19.3-18.4,30.2-36.3,34.9c-26.8,6.9-50.2,0.4-68.3-21.4C764,129.5,762.4,108.8,767,87.3z M823.8,98.4c0,0,0-0.1,0-0.1
	c7.5,0,15-0.4,22.4,0.1c15.1,0.9,13.2-6.8,8-15.7c-10.4-18-38.8-20.6-53.9-4.9c-4.9,5.1-10,11.6-7.6,18c2.2,5.8,10.2,2.1,15.5,2.6
	C813.4,98.8,818.6,98.4,823.8,98.4z"/>
<path class="st0" d="M236.7,165.9c-15.8,19.9-39.1,25.4-62,28.9c-56.7,8.7-105-7.8-141.6-53.4c-7.3-9.1-12.8-19.3-16-30.5
	c-2.5-8.6-9.7-20.1-3.5-25.7c7-6.3,19.9-1.9,30.2-1.8c7.2,0.1,6.4,7.3,8.3,11.5c11.5,24.8,27.9,44.8,52.6,57.5
	c5.1,5.8,12.4,7.8,19.2,10.7C161.2,179.1,198.9,176.2,236.7,165.9z"/>
<path class="st0" d="M953.2,45.8c15.8,1.1,30.3,4.9,39.6,18.4c4,5.8,11.3,14.9,4.3,19.5c-6.7,4.4-18.5,6.8-25.3-5.3
	c-6.3-11.3-17.2-12.2-28.8-9.4c-6.1,1.5-11,4.4-11.7,11.1c-0.7,6.6,3.3,11.2,9,13.3c10.8,4,22,7.1,32.8,10.9
	c21.7,7.6,28,16.3,26.6,36.3c-1.1,16-12.4,26.9-31.7,30.6c-24.9,4.8-48.4-2.9-58.6-19.9c-3.2-5.3-9.9-14-2.7-17.2
	c6.3-2.8,17.9-7,24.1,4.4c7.6,13.8,20.3,13.5,33.3,11.1c6-1.1,10.6-4.5,11.5-11.3c0.9-7-2.9-10.8-9-12.9c-9.8-3.4-19.6-6.7-29.5-9.9
	c-24.7-8.2-33-17.7-31.7-36.7c1.2-16.5,15-28.4,37.4-32C946.6,46.1,950,46,953.2,45.8z"/>
<path class="st0" d="M721.2,80.7c-8.8,7.9-7.6,18.7-7.8,28.9c-0.3,16.1-0.8,32.2,0.2,48.3c0.7,11.5-4.2,13-14.1,13.1
	c-10.3,0.1-12.3-3.7-12.2-13c0.5-31-0.1-62.1,0.5-93.1c0.1-5.5-5.5-15.1,6.5-15.9c9.2-0.6,20.1-3.7,21,12.4
	c10-9.1,21-17.8,31.5-13.5c6.9,2.8,2.5,16.5,2,25.4C738.8,72.7,728.6,71.4,721.2,80.7z"/>
<path class="st0" d="M628.1,118.5c0.2-18.4,0.5-36.9,0.6-55.3c0.1-7.5-1.6-15.3,10.7-14.9c9.4,0.4,16.2-0.4,16.6,13.1
	c0.1,1.6-0.1,3.6,0.2,5.3c-0.4,29.8-1.2,59.6-1,89.5c0.1,10.7-2.1,14.9-14.1,14.9c-12.1,0-12.7-5.5-12.5-14.6
	C629,143.8,628.3,131.2,628.1,118.5z"/>
<path class="st0" d="M650.3,31c-7.2,1.6-14,1-20.3-3c-6.4-16.4-2.8-26.3,10-27.8c7-0.8,12.5,1.7,15.9,7.9
	C660.9,17.2,656.8,24.5,650.3,31z"/>
<path class="st1" d="M579.4,21.5c-0.4,1.5-0.9,3.1-1.3,4.6C578.5,24.6,578.9,23,579.4,21.5z"/>
</svg>
